<svg viewBox="0 0 100 100" xmlns="http://www.w3.org/2000/svg" fill-rule="evenodd" clip-rule="evenodd"><g><path d="M25.744 100h18.748l14.676-5.907 40.832-3.378v-7.023l-42.464 3.513-31.792 12.795m74.256-94.365l-37.852 34.198-10.767-2.469-12.73-18.939 20.134-18.425h-10.368l-13.715 12.551-8.437-12.551h-8.435l29.287 43.568 8.691 1.993-10.521 9.505-26.917 8.585-18.37 17.706v13.889l23.63-22.776 26.757-8.535 10.668-9.638 38.945 9.881v-7.222l-32.704-8.298 32.704-29.547v-13.476" fill="#fff"/><path d="M18 0l30 44 8 2-11 10-27 8-18 17v-81h18" fill="#d6ebfb"/><path d="M26 0l9 13 13-13h-22" fill="#5caff1"/><path d="M58 0l-20 19 13.5 19 10.5 2 38-34v-6h-42" fill="#2196f3"/><path d="M100 19l-33 30 33 8v-38" fill="#84c3f4"/><path d="M100 64l-39-10-11 10-26 8-24 23v5h27l31-13 42-3v-20z" fill="#1b75b2"/><path d="M100 91l-41 3-14 7 55-1v-9z" fill="#5caff1"/><path d="M27 100" stroke="#c8d2d7" stroke-width="2" fill="none"/><path d="M21.027 45.563l-1.83-.001v-9.28h-2.328v-1.453l4.158-.392v11.126zM91.18 41.175c.595 0 1.023-.148 1.285-.446.262-.297.393-.712.393-1.246 0-.479-.141-.867-.424-1.168-.281-.299-.689-.449-1.223-.449-.494 0-.904.147-1.232.442-.327.294-.49.663-.49 1.106h-1.762l-.015-.045c-.03-.842.291-1.548.964-2.119.672-.572 1.518-.858 2.535-.858 1.072 0 1.92.263 2.542.79.622.527.933 1.293.933 2.301 0 .504-.137.966-.412 1.387-.273.42-.655.749-1.145.986.56.221.988.555 1.285 1 .297.446.445.984.445 1.613 0 1.013-.34 1.807-1.02 2.381-.68.574-1.557.861-2.629.861-.968 0-1.816-.273-2.547-.82-.731-.547-1.083-1.293-1.058-2.24l.015-.045h1.769c0 .463.17.852.51 1.167.34.315.776.472 1.312.472.553 0 .994-.164 1.322-.494.326-.33.49-.754.49-1.273 0-.625-.152-1.09-.457-1.397-.305-.307-.767-.461-1.387-.461h-1.224v-1.443h1.225v-.002z" fill="#1b75b2"/><path d="M61.412 12.859c.427-.001.839.04 1.235.124.397.082.754.192 1.07.327l-.354 1.417c-.307-.121-.607-.215-.903-.283-.297-.068-.644-.101-1.04-.101-.668 0-1.206.268-1.615.805-.41.539-.614 1.247-.614 2.133v.572c.296-.297.649-.527 1.059-.693.41-.166.859-.248 1.352-.248.939 0 1.679.324 2.219.971.539.648.81 1.498.81 2.547 0 1.109-.324 2.006-.972 2.689-.647.682-1.504 1.023-2.568 1.023-1.08 0-1.97-.389-2.671-1.169-.7-.777-1.051-1.841-1.051-3.192v-2.387c0-1.347.386-2.439 1.156-3.278.769-.838 1.732-1.257 2.887-1.257zm-.407 5.476c-.437 0-.808.078-1.111.236-.303.157-.538.377-.704.652v.654c0 .875.178 1.561.535 2.057.356.498.811.746 1.363.746.537 0 .958-.211 1.262-.633.304-.422.455-.961.455-1.619 0-.643-.159-1.152-.478-1.529-.319-.377-.759-.564-1.322-.564zM55.622 78.952c.635 0 1.149-.224 1.545-.672.396-.448.593-1.078.593-1.889v-.793c-.242.337-.537.592-.884.763-.348.171-.726.257-1.133.257-1.043 0-1.86-.33-2.452-.99-.592-.66-.888-1.568-.888-2.727 0-1.104.331-2.014.994-2.729.662-.715 1.495-1.072 2.497-1.072 1.103 0 1.996.359 2.679 1.08.682.721 1.023 1.728 1.023 3.021v3.121c0 1.274-.372 2.275-1.114 3.004-.743.728-1.696 1.092-2.86 1.092-.388 0-.785-.041-1.19-.121-.406-.081-.785-.199-1.137-.355l.295-1.398c.327.146.647.252.959.314.312.063.67.094 1.073.094zm.294-3.761c.438 0 .813-.092 1.126-.276.312-.184.552-.425.718-.722v-1.307c0-.74-.163-1.311-.487-1.711-.324-.4-.774-.602-1.349-.602-.489 0-.893.221-1.213.662-.32.439-.479.996-.479 1.666 0 .689.145 1.244.435 1.662.289.419.705.628 1.249.628z" fill="#fff"/><g stroke="#c8d2d7" stroke-width="2" fill="none"><path d="M27 0l8 12 13-12M58 0l-19.5 19 13.5 19 9 3M61 41l39-35M100 91l-40 3-15 6M18 0l30 43 7 3-10 9-26 9-19 17M100 19l-32 30 32 8M100 64l-39-10-11 10-26 8-26 24M100 84l-43 3-33 14"/></g></g></svg>