<?xml version="1.0" encoding="iso-8859-1"?>
<!-- Generator: Adobe Illustrator 15.0.0, SVG Export Plug-In . SVG Version: 6.00 Build 0)  -->
<!DOCTYPE svg PUBLIC "-//W3C//DTD SVG 1.1//EN" "http://www.w3.org/Graphics/SVG/1.1/DTD/svg11.dtd">
<svg version="1.1" xmlns="http://www.w3.org/2000/svg" xmlns:xlink="http://www.w3.org/1999/xlink" x="0px" y="0px" width="100px"
	 height="100px" viewBox="0 0 100 100" style="enable-background:new 0 0 100 100;" xml:space="preserve">
<g id="clusters">
	<g>
		<rect style="fill:#DDE4E7;" width="100" height="100"/>
		<path style="fill:#FFFFFF;" d="M25.744,100h18.748l14.676-5.907L100,90.715v-7.023l-42.464,3.513L25.744,100z M100,5.635
			L62.148,39.833l-10.767-2.469L38.651,18.425L58.785,0H48.417L34.702,12.551L26.265,0h-8.435l29.287,43.568l8.691,1.993
			l-10.521,9.505L18.37,63.651L0,81.357v13.889L23.63,72.47l26.757-8.535l10.668-9.638L100,64.178v-7.222l-32.704-8.298L100,19.111
			V5.635z"/>
	</g>
	<g>
		<path style="opacity:0.5;fill:#90A4AE;" d="M41.947,64.648c-7.721,0-14,6.28-14,14c0,7.721,6.28,14,14,14s14-6.279,14-14
			C55.947,70.929,49.668,64.648,41.947,64.648z"/>
		<path style="fill:#2196F3;" d="M41.947,66.981c-6.434,0-11.667,5.233-11.667,11.667s5.233,11.667,11.667,11.667
			s11.667-5.233,11.667-11.667S48.381,66.981,41.947,66.981z"/>
	</g>
	<g>
		<path style="opacity:0.5;fill:#90A4AE;" d="M94.195,42.061c-7.721,0-14,6.28-14,14c0,7.721,6.279,14,14,14s14-6.279,14-14
			C108.195,48.341,101.916,42.061,94.195,42.061z"/>
		<path style="fill:#2196F3;" d="M94.195,44.394c-6.434,0-11.667,5.233-11.667,11.667s5.233,11.667,11.667,11.667
			s11.667-5.233,11.667-11.667S100.629,44.394,94.195,44.394z"/>
	</g>
	<g>
		<path style="opacity:0.5;fill:#90A4AE;" d="M76.932,75.237c-7.721,0-14,6.279-14,14c0,7.719,6.279,14,14,14s14-6.281,14-14
			C90.932,81.517,84.652,75.237,76.932,75.237z"/>
		<path style="fill:#2196F3;" d="M76.932,77.57c-6.434,0-11.666,5.233-11.666,11.667s5.232,11.667,11.666,11.667
			c6.435,0,11.667-5.233,11.667-11.667S83.366,77.57,76.932,77.57z"/>
	</g>
	<g>
		<path style="opacity:0.5;fill:#90A4AE;" d="M21.266,46.119c-7.721,0-14,6.28-14,14c0,7.72,6.279,14,14,14c7.721,0,14-6.28,14-14
			C35.265,52.398,28.986,46.119,21.266,46.119z"/>
		<path style="fill:#2196F3;" d="M21.266,48.452c-6.435,0-11.667,5.233-11.667,11.667s5.232,11.667,11.667,11.667
			s11.667-5.233,11.667-11.667S27.7,48.452,21.266,48.452z"/>
	</g>
	<g>
		<path style="opacity:0.5;fill:#90A4AE;" d="M38.95-15.52c-20.956,0-38.001,17.045-38.001,37.998
			c0,20.956,17.045,37.998,38.001,37.998c20.957,0,38-17.042,38-37.998C76.949,1.525,59.906-15.52,38.95-15.52z"/>
		<path style="fill:#2196F3;" d="M38.95-9.188c-17.462,0-31.666,14.204-31.666,31.667S21.487,54.145,38.95,54.145
			s31.666-14.204,31.666-31.666S56.412-9.188,38.95-9.188z"/>
	</g>
	<g>
		<path style="fill:#FFFFFF;" d="M37.575,33.178c1.723,0,3.121-0.608,4.194-1.825s1.61-2.926,1.61-5.127v-2.153
			c-0.656,0.916-1.456,1.606-2.399,2.071s-1.969,0.697-3.076,0.697c-2.83,0-5.048-0.896-6.655-2.687s-2.41-4.259-2.41-7.403
			c0-2.994,0.899-5.462,2.697-7.403s4.057-2.912,6.778-2.912c2.994,0,5.417,0.978,7.27,2.933s2.779,4.689,2.779,8.203v8.47
			c0,3.459-1.008,6.176-3.025,8.152s-4.604,2.963-7.762,2.963c-1.053,0-2.129-0.109-3.23-0.328s-2.129-0.54-3.086-0.964l0.8-3.794
			c0.889,0.396,1.757,0.68,2.604,0.851S36.481,33.178,37.575,33.178z M38.375,22.965c1.189,0,2.208-0.25,3.056-0.749
			s1.497-1.152,1.948-1.958V16.71c0-2.01-0.441-3.558-1.323-4.645s-2.102-1.63-3.661-1.63c-1.326,0-2.423,0.598-3.292,1.794
			s-1.302,2.704-1.302,4.522c0,1.873,0.393,3.377,1.179,4.512S36.898,22.965,38.375,22.965z"/>
	</g>
</g>
<g id="Calque_1">
</g>
</svg>
