<?xml version="1.0" encoding="iso-8859-1"?>
<!-- Generator: Adobe Illustrator 15.0.0, SVG Export Plug-In . SVG Version: 6.00 Build 0)  -->
<!DOCTYPE svg PUBLIC "-//W3C//DTD SVG 1.1//EN" "http://www.w3.org/Graphics/SVG/1.1/DTD/svg11.dtd">
<svg version="1.1" xmlns="http://www.w3.org/2000/svg" xmlns:xlink="http://www.w3.org/1999/xlink" x="0px" y="0px" width="100px"
	 height="100px" viewBox="0 0 100 100" style="enable-background:new 0 0 100 100;" xml:space="preserve">
<g id="dots_x5F_and_x5F_shapes">
	<g>
		<rect style="fill:#DDE4E7;" width="100" height="100"/>
		<path style="fill:#FFFFFF;" d="M25.744,100h18.748l14.676-5.907L100,90.715v-7.023l-42.464,3.513L25.744,100z M100,5.635
			L62.148,39.833l-10.767-2.469L38.651,18.425L58.785,0H48.417L34.702,12.551L26.265,0h-8.435l29.287,43.568l8.691,1.993
			l-10.521,9.505L18.37,63.651L0,81.357v13.889L23.63,72.47l26.757-8.535l10.668-9.638L100,64.178v-7.222l-32.704-8.298L100,19.111
			V5.635z"/>
	</g>
	<rect style="fill:none;" width="100" height="100"/>
	<g>
		<path style="opacity:0.5;fill:#90A4AE;" d="M41.947,64.648c-7.721,0-14,6.28-14,14c0,7.721,6.28,14,14,14s14-6.279,14-14
			C55.947,70.929,49.668,64.648,41.947,64.648z"/>
		<path style="fill:#2196F3;" d="M41.947,66.981c-6.434,0-11.667,5.233-11.667,11.667s5.233,11.667,11.667,11.667
			s11.667-5.233,11.667-11.667S48.381,66.981,41.947,66.981z"/>
	</g>
	<g>
		<path style="opacity:0.5;fill:#90A4AE;" d="M94.195,42.061c-7.721,0-14,6.28-14,14c0,7.721,6.279,14,14,14s14-6.279,14-14
			C108.195,48.341,101.916,42.061,94.195,42.061z"/>
		<path style="fill:#2196F3;" d="M94.195,44.394c-6.434,0-11.667,5.233-11.667,11.667s5.233,11.667,11.667,11.667
			s11.667-5.233,11.667-11.667S100.629,44.394,94.195,44.394z"/>
	</g>
	<g>
		<path style="opacity:0.5;fill:#90A4AE;" d="M76.932,75.237c-7.721,0-14,6.279-14,14c0,7.719,6.279,14,14,14s14-6.281,14-14
			C90.932,81.517,84.652,75.237,76.932,75.237z"/>
		<path style="fill:#2196F3;" d="M76.932,77.57c-6.434,0-11.666,5.233-11.666,11.667s5.232,11.667,11.666,11.667
			c6.435,0,11.667-5.233,11.667-11.667S83.366,77.57,76.932,77.57z"/>
	</g>
	<g>
		<path style="opacity:0.5;fill:#90A4AE;" d="M21.266,46.119c-7.721,0-14,6.28-14,14c0,7.72,6.279,14,14,14c7.721,0,14-6.28,14-14
			C35.265,52.398,28.986,46.119,21.266,46.119z"/>
		<path style="fill:#2196F3;" d="M21.266,48.452c-6.435,0-11.667,5.233-11.667,11.667s5.232,11.667,11.667,11.667
			s11.667-5.233,11.667-11.667S27.7,48.452,21.266,48.452z"/>
	</g>
	<g>
		<path style="opacity:0.5;fill:#90A4AE;" d="M38.949,8.479c-7.721,0-14,6.279-14,13.999c0,7.721,6.279,13.999,14,13.999
			s14-6.278,14-13.999C52.949,14.759,46.67,8.479,38.949,8.479z"/>
		<path style="fill:#2196F3;" d="M38.949,10.812c-6.434,0-11.667,5.233-11.667,11.667s5.233,11.667,11.667,11.667
			s11.666-5.233,11.666-11.667S45.383,10.812,38.949,10.812z"/>
	</g>
	<g>
		<path style="fill:#FFFFFF;" d="M40.222,27.728h-1.83v-9.28h-2.328v-1.453l4.158-0.392V27.728z"/>
	</g>
	<g>
		<path style="fill:#FFFFFF;" d="M94.18,55.175c0.595,0,1.023-0.148,1.285-0.446c0.262-0.297,0.393-0.712,0.393-1.246
			c0-0.479-0.141-0.867-0.424-1.168c-0.281-0.299-0.689-0.449-1.223-0.449c-0.494,0-0.904,0.147-1.232,0.442
			c-0.327,0.294-0.49,0.663-0.49,1.106h-1.762l-0.015-0.045c-0.03-0.842,0.291-1.548,0.964-2.119
			c0.672-0.572,1.518-0.858,2.535-0.858c1.072,0,1.92,0.263,2.542,0.79s0.933,1.293,0.933,2.301c0,0.504-0.137,0.966-0.412,1.387
			c-0.273,0.42-0.655,0.749-1.145,0.986c0.56,0.221,0.988,0.555,1.285,1c0.297,0.446,0.445,0.984,0.445,1.613
			c0,1.013-0.34,1.807-1.02,2.381s-1.557,0.861-2.629,0.861c-0.968,0-1.816-0.273-2.547-0.82s-1.083-1.293-1.058-2.24l0.015-0.045
			h1.769c0,0.463,0.17,0.852,0.51,1.167s0.776,0.472,1.312,0.472c0.553,0,0.994-0.164,1.322-0.494c0.326-0.33,0.49-0.754,0.49-1.273
			c0-0.625-0.152-1.09-0.457-1.397s-0.767-0.461-1.387-0.461h-1.224v-1.443H94.18z"/>
	</g>
	<g>
		<path style="fill:#FFFFFF;" d="M79.16,90.869h1.509v1.608H79.16v2.649h-1.986v-2.649h-4.995l-0.05-1.223l4.988-8.072h2.043V90.869
			z M74.074,90.869h3.1v-4.872l-0.049-0.009l-0.188,0.46L74.074,90.869z"/>
	</g>
	<g>
		<path style="fill:#FFFFFF;" d="M21.808,54.09c0.427,0,0.839,0.041,1.235,0.125c0.397,0.082,0.754,0.191,1.07,0.327l-0.354,1.417
			c-0.307-0.121-0.607-0.215-0.903-0.283c-0.297-0.068-0.644-0.102-1.04-0.102c-0.668,0-1.206,0.268-1.615,0.805
			c-0.41,0.539-0.614,1.248-0.614,2.133v0.572c0.296-0.297,0.649-0.527,1.059-0.693s0.859-0.248,1.352-0.248
			c0.939,0,1.679,0.324,2.219,0.971c0.539,0.648,0.81,1.498,0.81,2.547c0,1.109-0.324,2.006-0.972,2.689
			c-0.647,0.682-1.504,1.023-2.568,1.023c-1.08,0-1.97-0.389-2.671-1.168c-0.7-0.777-1.051-1.842-1.051-3.193v-2.387
			c0-1.346,0.386-2.438,1.156-3.277C19.69,54.51,20.653,54.09,21.808,54.09z M21.401,59.566c-0.437,0-0.808,0.078-1.111,0.236
			s-0.538,0.377-0.704,0.652v0.654c0,0.875,0.178,1.561,0.535,2.057c0.356,0.498,0.811,0.746,1.363,0.746
			c0.537,0,0.958-0.211,1.262-0.633s0.455-0.961,0.455-1.619c0-0.643-0.159-1.152-0.478-1.529
			C22.404,59.754,21.964,59.566,21.401,59.566z"/>
	</g>
	<g>
		<path style="fill:#FFFFFF;" d="M41.441,82.611c0.635,0,1.149-0.224,1.545-0.672s0.593-1.078,0.593-1.889v-0.793
			c-0.242,0.337-0.537,0.592-0.884,0.763c-0.348,0.171-0.726,0.257-1.133,0.257c-1.043,0-1.86-0.33-2.452-0.99
			s-0.888-1.568-0.888-2.727c0-1.104,0.331-2.014,0.994-2.729c0.662-0.715,1.495-1.072,2.497-1.072c1.103,0,1.996,0.359,2.679,1.08
			c0.682,0.721,1.023,1.728,1.023,3.021v3.121c0,1.274-0.372,2.275-1.114,3.004c-0.743,0.728-1.696,1.092-2.86,1.092
			c-0.388,0-0.785-0.041-1.19-0.121c-0.406-0.081-0.785-0.199-1.137-0.355l0.295-1.398c0.327,0.146,0.647,0.252,0.959,0.314
			C40.68,82.58,41.038,82.611,41.441,82.611z M41.735,78.85c0.438,0,0.813-0.092,1.126-0.276c0.312-0.184,0.552-0.425,0.718-0.722
			v-1.307c0-0.74-0.163-1.311-0.487-1.711s-0.774-0.602-1.349-0.602c-0.489,0-0.893,0.221-1.213,0.662
			c-0.32,0.439-0.479,0.996-0.479,1.666c0,0.689,0.145,1.244,0.435,1.662C40.775,78.641,41.191,78.85,41.735,78.85z"/>
	</g>
</g>
<g id="Calque_1">
</g>
</svg>
