<?xml version="1.0" standalone="no"?>
<!DOCTYPE svg PUBLIC "-//W3C//DTD SVG 20010904//EN"
 "http://www.w3.org/TR/2001/REC-SVG-20010904/DTD/svg10.dtd">
<svg version="1.0" xmlns="http://www.w3.org/2000/svg"
 width="512.000000pt" height="512.000000pt" viewBox="0 0 512.000000 512.000000"
 preserveAspectRatio="xMidYMid meet">

<g transform="translate(0.000000,512.000000) scale(0.100000,-0.100000)"
fill="#000000" stroke="none">
<path d="M2947 5109 c-155 -11 -194 -27 -226 -92 -12 -24 -21 -53 -21 -64 0
-26 54 -182 82 -238 39 -76 125 -200 187 -269 73 -80 92 -120 93 -192 2 -167
-169 -273 -320 -198 -92 46 -258 257 -358 456 -41 82 -100 242 -124 337 -15
56 -54 96 -110 111 -40 11 -53 9 -159 -25 -423 -135 -802 -358 -1078 -634 -82
-82 -89 -102 -80 -215 13 -150 81 -336 176 -483 105 -163 245 -292 420 -389
142 -78 184 -132 184 -235 -1 -127 -97 -219 -227 -219 -46 0 -71 8 -153 50
-260 133 -476 339 -636 605 -31 52 -68 100 -87 113 -63 42 -163 22 -205 -42
-31 -46 -124 -266 -165 -384 -167 -493 -183 -1023 -44 -1464 88 -277 284 -514
539 -649 44 -23 82 -44 85 -46 2 -2 -152 -160 -342 -351 -190 -191 -353 -361
-362 -379 -61 -122 75 -258 197 -197 18 9 188 172 379 362 191 190 349 344
351 342 2 -3 23 -41 46 -85 135 -255 372 -451 649 -539 441 -139 970 -123
1464 44 118 41 338 134 384 165 64 42 84 142 42 205 -13 19 -62 56 -113 87
-266 161 -472 378 -605 636 -42 82 -50 107 -50 153 0 93 43 164 125 206 81 42
193 21 256 -49 14 -15 47 -67 73 -114 157 -284 403 -479 716 -566 96 -26 210
-39 264 -29 65 12 254 222 408 451 133 199 298 559 353 772 26 101 -15 180
-106 203 -95 24 -255 83 -337 124 -199 100 -410 266 -456 358 -75 151 31 322
198 320 72 -1 112 -20 192 -93 69 -62 193 -148 269 -187 56 -28 212 -82 238
-82 40 0 103 39 125 78 45 81 54 646 17 1057 -29 310 -98 732 -156 945 -35
131 -55 142 -379 209 -528 108 -1124 152 -1613 120z m663 -299 c204 -12 395
-33 610 -66 175 -27 426 -77 437 -87 20 -20 99 -480 128 -742 29 -272 48 -818
29 -838 -9 -9 -113 64 -181 127 -123 114 -227 157 -378 157 -461 0 -694 -540
-379 -880 160 -173 444 -359 677 -442 37 -13 67 -29 67 -36 0 -21 -77 -207
-126 -306 -93 -186 -224 -380 -345 -510 l-54 -58 -80 21 c-235 62 -420 210
-545 436 -71 128 -117 184 -191 235 -71 48 -139 74 -233 89 -197 31 -428 -86
-523 -265 -45 -86 -63 -157 -63 -250 0 -101 18 -172 71 -277 111 -221 294
-452 481 -605 38 -31 65 -59 61 -64 -12 -11 -194 -67 -290 -90 -428 -99 -908
-66 -1196 84 -168 86 -345 298 -398 475 l-13 43 1246 1247 c685 686 1253 1261
1262 1279 34 69 5 158 -64 193 -49 25 -90 25 -138 1 -21 -11 -575 -558 -1277
-1260 -682 -683 -1246 -1241 -1253 -1241 -7 0 -47 14 -89 32 -234 97 -415 297
-486 538 -90 300 -100 627 -31 967 24 119 88 340 103 356 5 4 33 -23 64 -61
153 -187 384 -370 605 -481 105 -53 176 -71 277 -71 93 0 164 18 250 63 179
95 296 326 265 522 -15 96 -37 151 -87 228 -54 81 -106 124 -237 197 -226 125
-376 313 -436 546 l-21 79 58 54 c127 120 324 252 518 349 104 52 276 122 298
122 6 0 23 -30 36 -67 109 -304 379 -671 562 -763 209 -106 456 -65 616 102
98 103 144 218 144 363 0 151 -43 255 -157 378 -63 68 -136 172 -127 181 10 9
350 7 533 -4z"/>
</g>
</svg>
