<svg version="1.1" id="Layer_1" xmlns="http://www.w3.org/2000/svg" xmlns:xlink="http://www.w3.org/1999/xlink" x="0px" y="0px" width="40px" height="40px" viewBox="0 0 40 40" enable-background="new 0 0 40 40" xml:space="preserve" style="fill: rgb(249, 129, 30);">
<g>
	<path fill="#010101" d="M19.533,17.455c-0.046,0-0.094-0.004-0.139-0.013c-0.618-0.121-0.997-0.227-1.247-0.324l0.352,6.393
		l0.098,0.011l1.878,0.184l-0.137-7.149l-0.112,0.382C20.131,17.25,19.847,17.455,19.533,17.455z M23.993,6.917
		c1.088,0,1.972-0.882,1.972-1.97c0-1.088-0.884-1.97-1.972-1.97s-1.971,0.882-1.971,1.97C22.022,6.035,22.905,6.917,23.993,6.917z
		 M17.914,4.009c1.086,0,1.97-0.883,1.97-1.972c0-1.088-0.883-1.969-1.97-1.969c-1.09,0-1.972,0.881-1.972,1.969
		C15.942,3.125,16.824,4.009,17.914,4.009z M30.699,15.351c0.674,0,1.22-0.546,1.22-1.217c0-0.673-0.546-1.218-1.22-1.218
		c-0.67,0-1.218,0.544-1.218,1.218C29.481,14.805,30.029,15.351,30.699,15.351z M25.418,14.91l3.929,2.118l0.035,8.527l0.195-0.102
		c0.045-0.024,0.356-0.187,0.795-0.419v-3.696h0.658v3.35c0.313-0.165,0.654-0.344,0.991-0.521l0.032-7.139l3.932-2.118
		l-0.655-0.776l-3.316,1.714h-2.627l-3.316-1.714L25.418,14.91z M18.232,16.323c-0.037,0.149,1.299,0.409,1.299,0.409l1.749-5.898
		l0.334,6.344l-0.13,6.625l2.056,0.201l0.339-6.119h0.23l0.343,6.208l2.058,0.203l-0.137-7.118l0.045-0.847l-1.456-0.785
		c-0.19-0.104-0.325-0.288-0.366-0.5c-0.042-0.214,0.018-0.434,0.158-0.601l0.651-0.776c0.142-0.167,0.347-0.258,0.554-0.258
		c0.114,0,0.227,0.027,0.332,0.082l0.27,0.139l0.146-2.797l1.006,3.393l1.041,0.54c-0.068-0.199-0.105-0.411-0.105-0.633
		c0-0.314,0.082-0.608,0.216-0.872C28.123,10.73,27.19,7.55,27.19,7.55h-6.395C20.796,7.55,18.268,16.175,18.232,16.323z
		 M5.738,18.803l2.936-5.897h0.335l-3.074,9.317h3.074l0.592,5.219l2.516-1.133l0.46-4.086h3.075l-3.075-9.317h0.336l2.937,5.897
		c0,0,1.338-0.26,1.301-0.408c-0.037-0.148-3.754-8.774-3.754-8.774H8.193c0,0-3.719,8.626-3.757,8.774
		C4.399,18.543,5.738,18.803,5.738,18.803z M14.061,9.335c0.151,0.352,0.287,0.668,0.427,0.993l0.713-2.405l0.242,4.627
		c1.361,3.161,1.95,4.548,2.205,5.157l0.048-0.876c-0.026-0.034-0.049-0.066-0.07-0.099c-0.103-0.165-0.142-0.389-0.095-0.578
		c0.007-0.033,0.104-0.364,0.251-0.868l0.016-0.312h0.075c0.56-1.923,1.669-5.713,2.23-7.628c0.092-0.308,0.372-0.519,0.694-0.519
		h0.955c-0.119-0.407-0.226-0.77-0.317-1.088c-0.03-0.091-0.063-0.18-0.082-0.276c-0.149-0.508-0.241-0.825-0.241-0.825h-6.395
		c0,0-0.62,2.116-1.25,4.269C13.726,8.934,13.956,9.092,14.061,9.335z M10.756,8.988c1.088,0,1.97-0.882,1.97-1.97
		c0-1.088-0.882-1.97-1.97-1.97c-1.087,0-1.971,0.882-1.971,1.97C8.785,8.106,9.669,8.988,10.756,8.988z M15.651,22.947h-0.285
		l-0.038,1.912l1.973-0.891l0.274-4.959c-0.187,0.146-0.575,0.305-1.589,0.503c-0.047,0.008-0.093,0.013-0.137,0.013
		c-0.127,0-0.251-0.034-0.358-0.095l0.846,2.566c0.074,0.221,0.036,0.461-0.1,0.651C16.102,22.835,15.883,22.947,15.651,22.947z
		 M1,30.132l4.693,9.628l4.787-2.716l-4.513-8.416L1,30.132z M38.571,24.82c-0.871-1.848-2.605-1.559-3.76-0.981
		c-0.664,0.332-4.646,2.433-4.646,2.433s0.991,4.1-3.101,4.02c-3.224-0.062-5.779-0.339-5.779-0.339s-0.912-0.188-0.854-0.8
		c0.058-0.617,0.979-0.438,0.979-0.438l5.391,0.319c0,0,1.869,0.192,2-1.605c0.144-1.973-1.938-2.186-1.938-2.186l-8.196-0.805
		L7.709,29.38l3.369,5.979l5.092-2.328l10.085,0.912l11.242-6.025C37.498,27.918,39.366,26.499,38.571,24.82z" style="fill: rgb(249, 129, 30);"></path>
</g>
</svg>