<?xml version="1.0" standalone="no"?>
<!DOCTYPE svg PUBLIC "-//W3C//DTD SVG 20010904//EN"
 "http://www.w3.org/TR/2001/REC-SVG-20010904/DTD/svg10.dtd">
<svg version="1.0" xmlns="http://www.w3.org/2000/svg"
 width="512.000000pt" height="512.000000pt" viewBox="0 0 512.000000 512.000000"
 preserveAspectRatio="xMidYMid meet">

<g transform="translate(0.000000,512.000000) scale(0.100000,-0.100000)"
fill="#000000" stroke="none">
<path d="M2488 5099 c-75 -39 -72 -14 -78 -672 l-5 -589 -1168 -438 c-754
-283 -1177 -446 -1193 -461 -41 -39 -45 -76 -42 -376 3 -266 4 -283 24 -309
44 -59 67 -68 179 -72 l105 -4 0 -1038 0 -1037 23 -34 c12 -19 38 -42 57 -51
33 -17 157 -18 2170 -18 2013 0 2137 1 2170 18 19 9 45 32 57 51 l23 34 0
1037 0 1038 105 4 c112 4 135 13 179 72 20 26 21 42 24 319 2 263 1 295 -15
326 -10 19 -29 43 -43 53 -14 10 -547 213 -1185 452 l-1160 434 -3 191 -2 191
377 0 c422 0 425 0 470 69 23 34 23 37 23 381 0 344 0 347 -23 381 -46 70 -38
69 -562 69 -448 -1 -472 -2 -507 -21z m792 -429 l0 -150 -285 0 -285 0 0 150
0 150 285 0 285 0 0 -150z m366 -1501 c588 -221 1093 -410 1122 -421 l52 -19
0 -125 0 -124 -750 0 c-813 0 -777 2 -829 -54 -19 -20 -26 -40 -28 -84 -5 -72
19 -115 80 -142 40 -19 72 -20 630 -20 l587 0 0 -940 0 -940 -145 0 -145 0 0
579 c0 351 -4 599 -10 632 -43 227 -237 378 -470 367 -73 -3 -98 -9 -161 -40
-99 -47 -170 -118 -218 -217 l-36 -76 -3 -623 -3 -622 -154 0 -155 0 0 663 c0
390 -5 691 -10 732 -36 247 -267 422 -510 385 -196 -31 -351 -187 -380 -385
-5 -41 -10 -342 -10 -732 l0 -663 -150 0 -149 0 -3 623 -3 622 -36 75 c-78
164 -227 260 -403 260 -221 0 -405 -152 -446 -369 -6 -33 -10 -281 -10 -632
l0 -579 -145 0 -145 0 0 940 0 940 583 0 c552 0 584 1 624 20 61 27 85 70 80
143 -3 51 -8 62 -40 95 l-37 37 -760 3 -760 2 0 124 0 124 48 19 c489 187
2193 821 2208 822 11 1 502 -179 1090 -400z m-1011 -1408 c16 -9 38 -32 50
-51 20 -34 20 -52 23 -723 l3 -687 -156 0 -155 0 0 668 c0 431 4 680 11 704
27 100 132 141 224 89z m-1207 -201 c18 -11 41 -34 52 -52 19 -32 20 -52 20
-620 l0 -588 -150 0 -150 0 0 578 0 578 23 44 c38 75 134 103 205 60z m2412 2
c22 -12 44 -35 58 -62 l22 -44 0 -578 0 -578 -150 0 -150 0 0 588 c0 568 1
588 20 620 41 68 129 91 200 54z"/>
<path d="M2480 3279 c-137 -23 -264 -119 -325 -243 -148 -302 65 -646 400
-646 275 0 481 237 444 510 -34 245 -274 421 -519 379z m155 -318 c94 -53 88
-209 -9 -255 -63 -30 -130 -19 -178 29 -76 76 -45 204 57 240 44 16 85 12 130
-14z"/>
</g>
</svg>
