<svg version="1.1" id="Layer_1" xmlns="http://www.w3.org/2000/svg" xmlns:xlink="http://www.w3.org/1999/xlink" x="0px" y="0px" width="40px" height="40px" viewBox="0 0 40 40" enable-background="new 0 0 40 40" xml:space="preserve" style="fill: rgb(20, 157, 114);">
<g>
	<rect x="0.38" y="35.712" fill="#010101" width="39.62" height="1.208" style="fill: rgb(20, 157, 114);"></rect>
	<rect x="0.38" y="2.354" fill="#010101" width="39.62" height="0.555" style="fill: rgb(20, 157, 114);"></rect>
	<path fill="#010101" d="M38.981,4.78l-8.66,4.871l1.896,1.124H0.38v0.556h32.775l0.29,0.172l-4.704,7.695h-4.007l-1.629-2.322
		l-1.876,2.322H0.38v0.555h20.401l-6.354,7.865H13.94l-3.791-3.737l-3.438,3.737H0.38v0.556H6.2l-2.598,2.823l-1.71-1.661
		l-1.783,1.836l3.597,3.493l5.972-6.491h1.18l3.57,3.519l2.842-3.519H40v-0.556H17.718l5.244-6.491l4.062,5.786l4.379-7.16H40
		v-0.555h-8.259l3.907-6.39l3.217,1.907l0.041-3.384H40v-0.556h-1.088L38.981,4.78z M10.188,27.617l0.052-0.055l0.055,0.055H10.188z
		 M26.876,22.246l-1.751-2.494h3.276L26.876,22.246z" style="fill: rgb(20, 157, 114);"></path>
</g>
</svg>