<?xml version="1.0" standalone="no"?>
<!DOCTYPE svg PUBLIC "-//W3C//DTD SVG 20010904//EN"
 "http://www.w3.org/TR/2001/REC-SVG-20010904/DTD/svg10.dtd">
<svg version="1.0" xmlns="http://www.w3.org/2000/svg"
 width="512.000000pt" height="512.000000pt" viewBox="0 0 512.000000 512.000000"
 preserveAspectRatio="xMidYMid meet">

<g transform="translate(0.000000,512.000000) scale(0.100000,-0.100000)"
fill="#000000" stroke="none">
<path d="M4210 4989 c-358 -98 -480 -135 -498 -152 -40 -37 -55 -75 -49 -131
4 -42 10 -55 45 -88 40 -37 66 -45 127 -38 11 1 145 35 297 76 152 41 282 74
288 74 14 0 -19 -59 -113 -200 -308 -461 -732 -899 -1232 -1271 -730 -543
-1567 -904 -2356 -1018 -195 -28 -237 -32 -438 -40 -159 -6 -184 -10 -208 -27
-94 -70 -95 -190 -3 -252 35 -24 37 -24 230 -19 924 27 1953 401 2840 1033
611 435 1111 949 1476 1518 38 60 65 94 68 85 3 -8 35 -126 72 -263 77 -292
77 -293 112 -329 78 -82 226 -35 248 79 10 52 -245 1006 -278 1042 -33 35 -72
52 -115 51 -21 -1 -252 -59 -513 -130z"/>
<path d="M4071 3393 c-24 -9 -63 -35 -86 -58 -81 -80 -75 40 -75 -1587 l0
-1448 -150 0 -150 0 0 948 c0 1067 4 1008 -75 1087 -68 68 -101 75 -375 75
-274 0 -307 -7 -375 -75 -79 -79 -75 -20 -75 -1087 l0 -948 -150 0 -150 0 0
673 c0 760 2 735 -75 812 -68 68 -101 75 -375 75 -274 0 -307 -7 -375 -75 -77
-77 -75 -52 -75 -812 l0 -673 -150 0 -150 0 0 493 c0 559 0 557 -75 632 -68
68 -101 75 -375 75 -274 0 -307 -7 -375 -75 -75 -75 -75 -73 -75 -632 l0 -493
-95 0 c-76 0 -104 -4 -135 -20 -45 -23 -80 -80 -80 -130 0 -50 35 -107 80
-130 39 -20 53 -20 2480 -20 2427 0 2441 0 2480 20 45 23 80 80 80 130 0 50
-35 107 -80 130 -31 16 -59 20 -135 20 l-95 0 0 1448 c0 1627 6 1507 -75 1587
-68 69 -101 75 -379 74 -191 0 -250 -4 -285 -16z m439 -1688 l0 -1405 -150 0
-150 0 0 1405 0 1405 150 0 150 0 0 -1405z m-1200 -500 l0 -905 -150 0 -150 0
0 905 0 905 150 0 150 0 0 -905z m-1200 -275 l0 -630 -150 0 -150 0 0 630 0
630 150 0 150 0 0 -630z m-1200 -180 l0 -450 -150 0 -150 0 0 450 0 450 150 0
150 0 0 -450z"/>
</g>
</svg>
