<?xml version="1.0" standalone="no"?>
<!DOCTYPE svg PUBLIC "-//W3C//DTD SVG 20010904//EN"
 "http://www.w3.org/TR/2001/REC-SVG-20010904/DTD/svg10.dtd">
<svg version="1.0" xmlns="http://www.w3.org/2000/svg"
 width="512.000000pt" height="512.000000pt" viewBox="0 0 512.000000 512.000000"
 preserveAspectRatio="xMidYMid meet">

<g transform="translate(0.000000,512.000000) scale(0.100000,-0.100000)"
fill="#000000" stroke="none">
<path d="M2378 5099 c-66 -34 -78 -74 -78 -249 l0 -150 -240 0 c-222 0 -244
-2 -280 -20 -26 -13 -47 -34 -60 -60 -18 -36 -20 -58 -20 -280 l0 -240 -190 0
c-171 0 -195 -2 -230 -20 -67 -34 -80 -74 -80 -240 l0 -140 -540 0 c-522 0
-542 -1 -580 -20 -26 -13 -47 -34 -60 -60 -20 -39 -20 -55 -20 -1770 0 -1715
0 -1731 20 -1770 13 -26 34 -47 60 -60 39 -20 53 -20 2480 -20 2427 0 2441 0
2480 20 26 13 47 34 60 60 20 39 20 53 20 2480 0 2427 0 2441 -20 2480 -35 69
-124 98 -195 64 -24 -11 -145 -158 -441 -536 -225 -287 -417 -535 -426 -552
-16 -29 -17 -104 -18 -973 l0 -943 -160 0 -160 0 0 940 c0 923 0 942 -20 980
-36 71 -69 80 -290 80 l-190 0 0 240 c0 222 -2 244 -20 280 -13 26 -34 47 -60
60 -36 18 -58 20 -280 20 l-240 0 0 150 c0 131 -3 156 -20 190 -37 73 -127 99
-202 59z m2442 -1784 l0 -1215 -250 0 -250 0 0 899 0 899 248 316 c136 174
248 316 250 316 1 0 2 -547 2 -1215z m-1920 935 l0 -150 -450 0 -450 0 0 150
0 150 450 0 450 0 0 -150z m500 -2200 l0 -1750 -150 0 -150 0 0 340 c0 322 -1
343 -20 380 -13 26 -34 47 -60 60 -38 19 -58 20 -570 20 -512 0 -532 -1 -570
-20 -26 -13 -47 -34 -60 -60 -19 -37 -20 -58 -20 -380 l0 -340 -150 0 -150 0
0 1750 0 1750 950 0 950 0 0 -1750z m-2200 -200 l0 -1550 -150 0 -150 0 0 140
c0 166 -13 206 -80 240 -50 25 -90 25 -140 0 -67 -34 -80 -74 -80 -240 l0
-140 -150 0 -150 0 0 1550 0 1550 450 0 450 0 0 -1550z m3620 -800 l0 -750
-560 0 -560 0 0 750 0 750 560 0 560 0 0 -750z m-2020 -500 l0 -250 -350 0
-350 0 0 250 0 250 350 0 350 0 0 -250z"/>
<path d="M1878 3479 c-43 -22 -78 -81 -78 -129 0 -50 35 -107 80 -130 38 -19
58 -20 570 -20 512 0 532 1 570 20 45 23 80 80 80 130 0 50 -35 107 -80 130
-38 19 -57 20 -572 20 -511 -1 -535 -2 -570 -21z"/>
<path d="M1878 2879 c-43 -22 -78 -81 -78 -129 0 -50 35 -107 80 -130 38 -19
58 -20 570 -20 512 0 532 1 570 20 45 23 80 80 80 130 0 50 -35 107 -80 130
-38 19 -57 20 -572 20 -511 -1 -535 -2 -570 -21z"/>
<path d="M1878 2279 c-43 -22 -78 -81 -78 -129 0 -50 35 -107 80 -130 38 -19
58 -20 570 -20 512 0 532 1 570 20 45 23 80 80 80 130 0 50 -35 107 -80 130
-38 19 -57 20 -572 20 -511 -1 -535 -2 -570 -21z"/>
<path d="M1878 1679 c-43 -22 -78 -81 -78 -129 0 -50 35 -107 80 -130 38 -19
58 -20 570 -20 512 0 532 1 570 20 45 23 80 80 80 130 0 50 -35 107 -80 130
-38 19 -57 20 -572 20 -511 -1 -535 -2 -570 -21z"/>
<path d="M678 3079 c-64 -33 -78 -76 -78 -229 0 -111 3 -137 20 -170 23 -45
80 -80 130 -80 50 0 107 35 130 80 17 33 20 59 20 170 0 111 -3 137 -20 170
-37 73 -127 99 -202 59z"/>
<path d="M678 2279 c-64 -33 -78 -76 -78 -229 0 -111 3 -137 20 -170 23 -45
80 -80 130 -80 50 0 107 35 130 80 17 33 20 59 20 170 0 111 -3 137 -20 170
-37 73 -127 99 -202 59z"/>
<path d="M678 1479 c-64 -33 -78 -76 -78 -229 0 -155 14 -196 80 -230 50 -25
90 -25 140 0 66 34 80 75 80 230 0 111 -3 137 -20 170 -37 73 -127 99 -202 59z"/>
<path d="M4098 1479 c-43 -22 -78 -81 -78 -129 0 -50 35 -107 80 -130 33 -17
59 -20 170 -20 111 0 137 3 170 20 45 23 80 80 80 130 0 50 -35 107 -80 130
-34 17 -58 20 -172 20 -113 -1 -139 -4 -170 -21z"/>
<path d="M4098 879 c-43 -22 -78 -81 -78 -129 0 -50 35 -107 80 -130 33 -17
59 -20 170 -20 111 0 137 3 170 20 45 23 80 80 80 130 0 50 -35 107 -80 130
-34 17 -58 20 -172 20 -113 -1 -139 -4 -170 -21z"/>
</g>
</svg>
