<?xml version="1.0" standalone="no"?>
<!DOCTYPE svg PUBLIC "-//W3C//DTD SVG 20010904//EN"
 "http://www.w3.org/TR/2001/REC-SVG-20010904/DTD/svg10.dtd">
<svg version="1.0" xmlns="http://www.w3.org/2000/svg"
 width="512.000000pt" height="512.000000pt" viewBox="0 0 512.000000 512.000000"
 preserveAspectRatio="xMidYMid meet">

<g transform="translate(0.000000,512.000000) scale(0.100000,-0.100000)"
fill="#000000" stroke="none">
<path d="M69 4427 c-19 -12 -42 -38 -51 -57 -17 -33 -18 -126 -18 -1510 0
-1384 1 -1477 18 -1510 9 -19 32 -45 51 -57 l34 -23 1412 0 1413 0 5 -127 c3
-71 9 -140 12 -156 l7 -27 -1424 0 -1425 0 -34 -23 c-94 -63 -88 -193 12 -252
34 -20 52 -20 2479 -20 2427 0 2445 0 2479 20 100 59 106 189 12 252 -33 23
-39 23 -339 23 l-304 0 7 28 c3 15 9 84 12 155 l5 127 293 0 c287 0 293 0 326
23 69 46 71 58 66 377 -5 300 -14 380 -62 571 -78 305 -248 637 -472 919 -97
121 -360 384 -482 481 -488 386 -1043 644 -1631 759 -250 48 -301 50 -1366 50
l-1001 0 -34 -23z m2144 -292 c441 -52 908 -215 1312 -458 96 -58 263 -172
315 -215 l25 -21 -699 -1 c-678 0 -700 -1 -731 -20 -58 -36 -69 -71 -62 -206
22 -445 332 -848 764 -995 171 -58 191 -59 944 -59 l688 0 11 -53 c25 -124 30
-172 37 -349 l6 -188 -1442 0 -1441 0 0 878 c0 978 4 921 -69 969 l-34 23
-768 0 -769 0 0 355 0 355 893 0 c728 0 916 -3 1020 -15z m-1425 -1312 l-3
-318 -242 -3 -243 -2 0 320 0 320 245 0 245 0 -2 -317z m852 -468 l0 -785
-275 0 -275 0 0 785 0 785 275 0 275 0 0 -785z m2606 735 c124 -133 277 -351
362 -517 29 -56 52 -104 52 -107 0 -3 -281 -6 -625 -6 -532 0 -637 2 -703 16
-296 61 -540 284 -631 578 -11 37 -21 72 -21 77 0 5 319 9 760 9 l759 0 47
-50z m-3456 -1205 l0 -315 -245 0 -245 0 0 315 0 315 245 0 245 0 0 -315z
m2740 -707 c0 -69 -5 -102 -18 -128 -53 -107 -211 -107 -264 0 -13 26 -18 59
-18 128 l0 92 150 0 150 0 0 -92z m600 0 c0 -69 -5 -102 -18 -128 -53 -107
-211 -107 -264 0 -13 26 -18 59 -18 128 l0 92 150 0 150 0 0 -92z"/>
</g>
</svg>
