<svg version="1.1" id="Layer_1" xmlns="http://www.w3.org/2000/svg" xmlns:xlink="http://www.w3.org/1999/xlink" x="0px" y="0px" width="40px" height="40px" viewBox="0 0 40 40" enable-background="new 0 0 40 40" xml:space="preserve" style="fill: rgb(143, 68, 192);">
<g>
	<path fill-rule="evenodd" clip-rule="evenodd" fill="#010101" d="M11.312,3.083H5.479c-0.833,0-1.563,0.7-1.905,1.429
		c-1.395,3.494-3.292,7.286-3.292,9.047c-0.108,3.347-0.28,9.554-0.24,12.976c0,2.026,2.27,4.008,4.167,4.008h35.754v-8.452
		c-3.663-1.276-7.041-3.142-9.921-5.833c-2.847-2.662-5.405-6.636-7.104-10.991c-0.601-1.612-1.248-2.072-2.816-2.184h-6.508H11.312
		z M5.439,5.623h14.089c0.328,0,0.695,0.177,0.913,0.874c0.378,1.213,0.806,3.291,1.229,4.443c0.21,0.585,0.075,1.508-0.831,1.508
		H3.496c-0.829,0-1.003-0.794-0.715-1.468c0.546-1.279,1.396-3.369,1.904-4.523C4.917,5.933,5.208,5.623,5.439,5.623L5.439,5.623z
		 M24.685,14.194c0.94,1.17,1.976,2.26,3.098,3.255v4.919c-0.978-0.524-1.941-1.09-2.858-1.705
		C24.738,18.451,24.701,16.441,24.685,14.194L24.685,14.194z M29.371,18.639c0.834,0.635,1.709,1.211,2.617,1.746l0.04,3.891
		c-0.911-0.335-1.79-0.705-2.661-1.112c-0.038-2.1,0-2.714,0-4.524H29.371z M4.369,19.434c0.032-0.002,0.047,0,0.078,0
		c1.017,0,1.864,0.847,1.864,1.865c0,1.016-0.847,1.824-1.864,1.824c-1.017,0-1.825-0.809-1.825-1.824
		C2.622,20.312,3.394,19.482,4.369,19.434L4.369,19.434z M18.021,19.591c0.031-0.002,0.086,0,0.118,0
		c1.017,0,1.826,0.849,1.826,1.866c0,1.016-0.81,1.824-1.826,1.824c-1.019,0-1.825-0.809-1.825-1.824
		C16.313,20.472,17.048,19.641,18.021,19.591L18.021,19.591z M33.377,21.02c0.842,0.432,1.689,0.852,2.578,1.192v3.253
		c-0.879-0.204-1.729-0.441-2.578-0.714V21.02z M37.067,22.567c0.678,0.226,1.363,0.424,2.064,0.596v2.858
		c-0.695-0.095-1.387-0.185-2.064-0.319V22.567z M3.535,32.37v1.705H0.042v2.461h21.112c3.306-1.906,12.551-3.39,18.81-3.729V32.37
		H16.433v1.705H8.773V32.37H3.535z M3.535,32.37" style="fill: rgb(143, 68, 192);"></path>
</g>
</svg>