<svg width="19px" height="19px" viewBox="0 0 19 19" version="1.1" xmlns="http://www.w3.org/2000/svg" xmlns:xlink="http://www.w3.org/1999/xlink" xmlns:sketch="http://www.bohemiancoding.com/sketch/ns" style="fill: rgb(22, 37, 131);">
    <path d="M9.5,0.3622 L0,5.3622 L9.5,10.3622 L15,7.58095 L15,11.3622 C15,13.3622 17,13.3622 17,13.3622 L17,12.3622 C17,12.3622 16,12.30501 16,11.3622 L16,7.01845 L19,5.3622 L9.5,0.3622 Z M5,9.3622 L5,11.3622 C5,11.8589 5.3250891,12.5247 6,12.8622 L9.5,14.3622 L12.5,12.8622 C13.174911,12.5247 14.047132,11.856659 14,11.3622 L14,9.3622 L9.5,11.5497 L5,9.3622 Z" id="path14929" style="fill: rgb(22, 37, 131);"></path>

    <rect style="opacity: 0; fill: rgb(22, 37, 131);" x="0" y="0" width="19" height="19"></rect>
</svg>