<svg version="1.1" id="Layer_1" xmlns="http://www.w3.org/2000/svg" xmlns:xlink="http://www.w3.org/1999/xlink" x="0px" y="0px" width="40px" height="40px" viewBox="0 0 40 40" enable-background="new 0 0 40 40" xml:space="preserve" style="fill: rgb(9, 68, 184);">
<path fill="#010101" d="M20.336,7.639h-0.079v-7.744h-1.065v7.793l-17.44,9.952l0.529,1.992h35.056l0.528-1.992L20.336,7.639z
	 M6.298,17.501l13.508-7.708l13.511,7.708H6.298z M7.381,21.192V33.45h3.839V21.192H7.381z M17.803,21.192V33.45h3.841V21.192
	H17.803z M28.226,21.192V33.45h3.841V21.192H28.226z M34.463,35.031H5.152v2.217H2.933V40h33.75v-2.752h-2.221V35.031z
	 M27.559-0.104h-6.582v4.334h6.582V-0.104z" style="fill: rgb(9, 68, 184);"></path>
</svg>