<svg version="1.1" id="Layer_1" xmlns="http://www.w3.org/2000/svg" xmlns:xlink="http://www.w3.org/1999/xlink" x="0px" y="0px" width="40px" height="40px" viewBox="0 0 40 40" enable-background="new 0 0 40 40" xml:space="preserve" style="fill: rgb(53, 187, 232);">
<g>
	<g>
		<path fill="#010101" d="M39.865,27.192v-1.951c-5.431-4.576-8.055-9.38-8.103-9.473l-0.672-1.274l-0.67,1.274
			c-0.09,0.17-8.878,16.431-28.169,17.613l-1.642,0.058c-0.194,0.002-0.381,0.014-0.575,0.014v1.593h30.3V40h1.515v-4.955h8.017
			v-1.664h-3.112v-8.926C37.688,25.363,38.717,26.284,39.865,27.192z M20.314,33.381h-9.696c3.755-1.157,6.974-2.851,9.696-4.725
			V33.381z M25.513,33.381h-4.356v-5.314c1.651-1.203,3.102-2.458,4.356-3.685V33.381z M30.334,33.381h-3.979v-9.848
			c1.762-1.827,3.089-3.535,3.979-4.811V33.381z M35.91,33.381h-4.062V18.722c0.906,1.296,2.257,3.038,4.062,4.897V33.381z
			 M8.793,26.676h2.799v2.923c1.024-0.392,1.997-0.826,2.929-1.295v-1.628h2.797v0.052c1.253-0.792,2.402-1.63,3.447-2.483V9.271
			H5.413v21.997c1.173-0.191,2.298-0.444,3.38-0.748V26.676z M14.585,11.689h2.798v4.416h-2.798V11.689z M14.552,18.863h2.798v4.416
			h-2.798V18.863z M8.861,11.689h2.797v4.416H8.861V11.689z M8.861,18.863h2.797v4.416H8.861V18.863z M22.429,22.804
			c4.307-3.966,6.406-7.777,6.445-7.851l0.671-1.273c0.301-0.574,0.897-0.935,1.546-0.935c0.65,0,1.246,0.36,1.548,0.933l0.669,1.27
			c0.012,0.021,0.588,1.07,1.739,2.627V0H17.468v7.607h4.96V22.804z M30.158,2.49h2.184v2.496h-2.184V2.49z M30.158,8.332h2.184
			v2.495h-2.184V8.332z M25.168,2.49h2.183v2.496h-2.183V2.49z M25.168,8.332h2.183v2.495h-2.183V8.332z M25.168,13.896h2.183v2.495
			h-2.183V13.896z M22.358,4.986h-2.183V2.49h2.183V4.986z" style="fill: rgb(53, 187, 232);"></path>
	</g>
</g>
</svg>