<svg version="1.1" id="Layer_1" xmlns="http://www.w3.org/2000/svg" xmlns:xlink="http://www.w3.org/1999/xlink" x="0px" y="0px" width="40px" height="40px" viewBox="0 0 40 40" enable-background="new 0 0 40 40" xml:space="preserve" style="fill: rgb(9, 68, 184);">
<path fill="#010101" d="M32.388,6.958c-0.109-0.708-0.844-1.524-1.852-1.552c-1.688-0.762-2.45,0.763-2.613,1.062
	c-0.161,0.299-0.271,0.544-1.059,1.034c0,0-0.546-0.517-1.474-1.116c-1.467-2.069-2.828-2.204-3.973-2.34
	c0,0-1.741-0.625-2.965-0.817c-0.382-0.163-0.736-0.436-1.961-0.625c-0.272-0.246-0.517-0.436-2.857-0.79
	c-2.149-2.857-4.899-1.441-5.307-1.007C7.783,0.671,7.702,0.916,7.674,1.269c0,0-0.38,0.109-0.517,0.382
	c-0.3,0.028-0.353,0.353-0.272,0.653c-0.109,0.217,0.026,0.517,0.191,0.68c0,2.422,1.578,3.755,3.511,3.755
	c1.932,0,2.912-1.36,3.156-2.177c0,0,1.361,0.218,2.559,0.408c1.144,1.062,3.483,1.579,4.844,2.069
	c-3.538,2.313-4.354,5.552-4.762,7.104c0,0-0.844,1.115-1.524,2.966c-0.68,1.85,0.326,2.832,1.361,3.728
	c-0.872,0.082-0.681,0.6-0.3,1.089c0.381,0.491,0.272,1.254-0.435,2.015c-0.654-0.025-0.708,0.681-0.708,0.953
	c0,0.271,0.462,0.381,0.653,1.171c0.189,0.79-1.007,2.694-1.334,3.838c-0.299,0.271-0.462,1.17-0.489,2.068
	c-0.489,0.354-0.57,2.422-0.381,3.43c-0.299,0.107-0.598,0.979-0.625,1.469L9.497,37.44v0.939v1.511V40h21.69v-0.464V38.38v-1.021
	c0,0-3.347-0.243-5.251-0.299c0-0.164-0.028-0.381-0.464-0.516c-0.434-0.137-1.388-0.627-2.504-1.254c0,0-0.028-0.869,0.027-1.524
	c0.054-0.652,0.79-2.53,1.525-4.68c0,0,1.088-0.653,1.632-1.116c0.543-0.463,0.38-1.143,0.354-1.525
	c0.272-0.217,0.326-0.76,0.462-1.196c0.137-0.437,0.545-1.116,1.333-2.423c0.79-1.307,1.171-3.021,0.707-4.138
	c0,0,0.165-0.815,0.191-2.693c0.681-2.097,0.3-3.485-0.218-3.838c0,0-0.272-0.707-0.625-1.17c0.435,0,0.544-0.326,0.681-0.326
	c0.136,0,0.379-0.027,0.518-0.165c0,0,0.136,0.165,0.271,0.165c0.137,0,0.407-0.354,0.708-0.709
	c0.435,0.083,0.679-0.217,1.006-0.544C32.576,9.407,32.497,7.666,32.388,6.958z M19.646,31.656c0,0,0.556-0.445,1.658-0.939
	c0,0.961-0.166,2.413-0.142,4.614c-0.024,0.071-0.421,0.773-0.655,1.546c0,0-0.516-0.115-0.985-0.115c0,0,0.048-1.805,0.124-2.108
	c0.076-0.305,0.042-0.539-0.24-0.855C19.125,33.481,19.383,32.639,19.646,31.656z M21.941,27.09c0-0.861,0-1.59,0-1.59
	c0.42,0.31,0.928,0.817,0.928,0.817c-0.197,0.309-0.353,0.595-0.353,0.595C22.206,26.979,21.941,27.09,21.941,27.09z M26.669,20.443
	c-0.243,0.771-0.199,1.965-0.199,2.584c-0.134,0.64-0.311,0.815-0.707,0.838c-0.995-1.347-2.717-4.108-4.108-5.609
	c0.243-1.082,0.797-1.877,1.062-2.363c1.325-0.2,2.605-1.192,3.135-1.678c0.51,0.11,1.039,0.419,1.039,0.419
	c-0.131,1.148-0.088,3.334,0,4.019C26.978,19.338,26.909,19.668,26.669,20.443z" style="fill: rgb(9, 68, 184);"></path>
</svg>