<?xml version="1.0" standalone="no"?>
<!DOCTYPE svg PUBLIC "-//W3C//DTD SVG 20010904//EN"
 "http://www.w3.org/TR/2001/REC-SVG-20010904/DTD/svg10.dtd">
<svg version="1.0" xmlns="http://www.w3.org/2000/svg"
 width="512.000000pt" height="512.000000pt" viewBox="0 0 512.000000 512.000000"
 preserveAspectRatio="xMidYMid meet">

<g transform="translate(0.000000,512.000000) scale(0.100000,-0.100000)"
fill="#000000" stroke="none">
<path d="M438 5099 c-23 -12 -46 -35 -58 -59 -20 -39 -20 -54 -20 -2480 0
-2427 0 -2441 20 -2480 13 -26 34 -47 60 -60 39 -20 54 -20 2120 -20 2066 0
2081 0 2120 20 26 13 47 34 60 60 20 39 20 53 20 2480 0 2427 0 2441 -20 2480
-13 26 -34 47 -60 60 -39 20 -54 20 -2122 20 -2054 -1 -2084 -1 -2120 -21z
m4022 -2539 l0 -2260 -200 0 -199 0 -3 817 -3 818 -23 59 c-60 158 -169 274
-312 333 l-55 22 -5 663 c-6 653 -6 664 -29 743 -97 342 -351 596 -686 686
-119 33 -346 33 -465 1 -342 -93 -598 -348 -692 -689 -19 -70 -22 -110 -25
-383 -5 -353 1 -404 68 -538 42 -85 142 -205 201 -239 28 -17 28 -18 28 -119
l0 -102 -282 -4 c-275 -4 -285 -5 -350 -29 -164 -63 -277 -177 -340 -345 l-23
-59 -3 -817 -3 -818 -199 0 -200 0 0 2260 0 2260 1900 0 1900 0 0 -2260z
m-1615 1595 c118 -25 228 -86 321 -179 63 -64 90 -99 123 -166 70 -144 71
-148 71 -836 l0 -611 -62 -13 c-33 -8 -97 -32 -142 -54 -45 -22 -84 -42 -88
-44 -5 -2 -8 297 -8 665 0 750 0 748 -71 892 -72 146 -206 265 -364 324 l-60
22 35 6 c64 12 174 9 245 -6z m-281 -324 c75 -37 128 -91 165 -170 l26 -56 0
-285 0 -285 -33 -67 c-38 -77 -92 -130 -171 -167 -47 -22 -70 -26 -141 -26
-71 0 -94 4 -140 26 -82 39 -135 90 -172 167 l-33 67 0 285 0 285 26 55 c87
186 293 260 473 171z m196 -1611 l0 -350 -350 0 -350 0 0 100 0 100 90 0 c112
0 159 20 190 80 17 34 20 59 20 180 l0 140 58 0 c83 0 186 25 267 64 38 19 71
35 73 35 1 1 2 -156 2 -349z m-1000 -775 c0 -607 1 -627 20 -665 13 -26 34
-47 60 -60 38 -19 58 -20 570 -20 512 0 532 -1 570 -20 67 -34 80 -74 80 -240
l0 -140 -850 0 -850 0 0 778 c0 877 -3 839 75 917 56 56 108 73 228 74 l97 1
0 -625z m1835 608 c29 -9 66 -33 90 -58 78 -78 75 -40 75 -917 l0 -778 -200 0
-200 0 0 153 c0 161 -10 219 -51 304 -33 66 -132 164 -197 194 l-53 24 3 395
3 395 32 67 c17 37 50 87 72 111 44 48 135 101 197 116 65 15 176 12 229 -6z
m-835 -768 l0 -285 -350 0 -350 0 0 285 0 285 350 0 350 0 0 -285z"/>
</g>
</svg>
